<svg width="6" height="11" viewBox="0 0 6 11" fill="none" xmlns="http://www.w3.org/2000/svg">
<path d="M3.81173 2.63864H5.01543C5.12623 2.63864 5.21605 2.54527 5.21605 2.4301V1.17886C5.21605 1.06371 5.12623 0.970337 5.01543 0.970337H3.81173C2.59351 0.971725 1.60626 1.99793 1.60495 3.26426V4.72404H0.200623C0.0898262 4.72404 0 4.81741 0 4.93258V6.18382C0 6.29899 0.0898262 6.39236 0.200623 6.39236H1.60495V10.7717C1.60495 10.8869 1.69477 10.9802 1.80557 10.9802H3.00927C3.12007 10.9802 3.2099 10.8869 3.2099 10.7717V6.39236H4.61422C4.70053 6.39231 4.77713 6.33485 4.8044 6.24972L5.20563 4.99849C5.24065 4.88922 5.18382 4.77114 5.0787 4.73473C5.05831 4.72768 5.03694 4.72406 5.01545 4.72404H3.2099V3.26426C3.20988 2.91874 3.47934 2.63864 3.81173 2.63864Z" fill="white"/>
</svg>
