<svg width="10" height="11" viewBox="0 0 10 11" fill="none" xmlns="http://www.w3.org/2000/svg">
<path d="M6.62037 0.970337H3.00926C1.34755 0.970337 0 2.3711 0 4.09843V7.85214C0 9.57947 1.34755 10.9802 3.00926 10.9802H6.62037C8.28208 10.9802 9.62963 9.57947 9.62963 7.85214V4.09843C9.62963 2.3711 8.28208 0.970337 6.62037 0.970337ZM8.72685 7.85214C8.72685 9.05958 7.78194 10.0418 6.62037 10.0418H3.00926C1.84769 10.0418 0.902778 9.05958 0.902778 7.85214V4.09843C0.902778 2.89098 1.84769 1.90876 3.00926 1.90876H6.62037C7.78194 1.90876 8.72685 2.89098 8.72685 4.09843V7.85214Z" fill="white"/>
<path d="M4.81488 3.47278C3.48539 3.47278 2.40747 4.59326 2.40747 5.97525C2.40747 7.35724 3.48539 8.47772 4.81488 8.47772C6.14437 8.47772 7.22229 7.35724 7.22229 5.97525C7.22229 4.59326 6.14437 3.47278 4.81488 3.47278ZM4.81488 7.5393C3.98553 7.5393 3.31025 6.83735 3.31025 5.97525C3.31025 5.11252 3.98553 4.41121 4.81488 4.41121C5.64423 4.41121 6.31951 5.11252 6.31951 5.97525C6.31951 6.83735 5.64423 7.5393 4.81488 7.5393Z" fill="white"/>
<path d="M7.40282 3.61923C7.57998 3.61923 7.72361 3.46979 7.72361 3.28544C7.72361 3.1011 7.57998 2.95166 7.40282 2.95166C7.22565 2.95166 7.08203 3.1011 7.08203 3.28544C7.08203 3.46979 7.22565 3.61923 7.40282 3.61923Z" fill="white"/>
</svg>
