<svg width="6" height="10" viewBox="30 .5 6 11" fill="none" xmlns="http://www.w3.org/2000/svg">
<path d="M33.1216 6.38729C34.6159 6.38729 35.8274 5.17467 35.8274 3.6788C35.8274 2.18294 34.6159 0.970337 33.1216 0.970337C31.6272 0.970337 30.4158 2.18296 30.4158 3.67882C30.4176 5.17391 31.628 6.38546 33.1216 6.38729ZM33.1216 2.2204C33.9262 2.2204 34.5785 2.87335 34.5785 3.67882C34.5785 4.4843 33.9262 5.13724 33.1216 5.13724C32.3169 5.13724 31.6646 4.4843 31.6646 3.67882C31.6646 2.87335 32.3169 2.2204 33.1216 2.2204Z" fill="white"/>
<path d="M35.7726 7.67071C36.0666 7.47683 36.2438 7.14812 36.2442 6.79566C36.2483 6.50314 36.0834 6.23454 35.8209 6.10603C35.5511 5.97116 35.2282 6.00153 34.9883 6.18438C33.8764 6.99581 32.3683 6.99581 31.2564 6.18438C31.0161 6.00249 30.6938 5.97216 30.4238 6.10603C30.1614 6.23452 29.9964 6.50283 30.0001 6.79523C30.0007 7.14763 30.1778 7.47624 30.4717 7.67028C30.8488 7.92129 31.2594 8.11769 31.6914 8.25365C31.7647 8.27643 31.8403 8.29754 31.9183 8.31699L30.6603 9.54831C30.3303 9.86882 30.3223 10.3964 30.6425 10.7268C30.9627 11.0571 31.4898 11.0651 31.8198 10.7446C31.8267 10.7379 31.8334 10.7311 31.84 10.7242L33.1222 9.39578L34.4068 10.7267C34.7267 11.0573 35.2538 11.0657 35.5841 10.7454C35.9143 10.4252 35.9227 9.89761 35.6028 9.56702C35.5961 9.56011 35.5893 9.55331 35.5824 9.54663L34.3265 8.31656C34.4044 8.29656 34.4803 8.27531 34.5542 8.25281C34.9857 8.11737 35.3959 7.92139 35.7726 7.67071Z" fill="white"/>
</svg>