<svg width="44" height="40" viewBox="0 0 44 40" fill="none" xmlns="http://www.w3.org/2000/svg">
<path d="M19.6044 27.8L29.5444 20.8C30.1191 20.4 30.1191 19.6 29.5444 19.2L19.6044 12.2C18.902 11.7 17.9016 12.18 17.9016 13V27C17.9016 27.82 18.902 28.3 19.6044 27.8ZM22.1586 0C10.4094 0 0.873779 8.96 0.873779 20C0.873779 31.04 10.4094 40 22.1586 40C33.9078 40 43.4434 31.04 43.4434 20C43.4434 8.96 33.9078 0 22.1586 0ZM22.1586 36C12.772 36 5.13075 28.82 5.13075 20C5.13075 11.18 12.772 4 22.1586 4C31.5452 4 39.1865 11.18 39.1865 20C39.1865 28.82 31.5452 36 22.1586 36Z" fill="white" fill-opacity="0.8"/>
</svg>
