<svg width="13" height="11" viewBox="0 0 13 11" fill="none" xmlns="http://www.w3.org/2000/svg">
<path d="M12.3109 2.15466C11.8578 2.35564 11.3716 2.49194 10.8608 2.55279C11.3824 2.24014 11.7816 1.74424 11.9709 1.15514C11.4816 1.44468 10.9416 1.65491 10.3661 1.76888C9.90534 1.27682 9.2499 0.970337 8.52291 0.970337C7.12819 0.970337 5.99734 2.10231 5.99734 3.49764C5.99734 3.69554 6.01965 3.88882 6.06273 4.07365C3.96412 3.96814 2.10322 2.96169 0.857742 1.43235C0.640028 1.80507 0.516174 2.23936 0.516174 2.70294C0.516174 3.58004 0.962365 4.35394 1.63935 4.80671C1.22546 4.79286 0.836198 4.67889 0.495415 4.48945V4.52102C0.495415 5.7454 1.36625 6.76725 2.52095 6.99982C2.30939 7.05681 2.0863 7.08838 1.85551 7.08838C1.69243 7.08838 1.53472 7.07221 1.38009 7.0414C1.70165 8.04632 2.63404 8.77709 3.73874 8.79712C2.87483 9.47478 1.78551 9.87751 0.602351 9.87751C0.398496 9.87751 0.197699 9.86519 0 9.84286C1.11778 10.5613 2.44481 10.9802 3.87107 10.9802C8.5168 10.9802 11.0562 7.12843 11.0562 3.78796L11.0478 3.46069C11.5439 3.10644 11.9732 2.66136 12.3109 2.15466Z" fill="white"/>
</svg>
