<svg width="17" height="11" viewBox="0 0 17 11" fill="none" xmlns="http://www.w3.org/2000/svg">
<path d="M8.25793 10.9381H9.26641C9.26641 10.9381 9.57127 10.903 9.72634 10.7286C9.86981 10.5685 9.86453 10.2681 9.86453 10.2681C9.86453 10.2681 9.84449 8.8612 10.4732 8.65395C11.0924 8.44999 11.8878 10.0137 12.7307 10.6157C13.3678 11.0707 13.852 10.971 13.852 10.971L16.1063 10.9381C16.1063 10.9381 17.2857 10.8624 16.7266 9.89853C16.6812 9.81958 16.4006 9.18577 15.0504 7.88307C13.6368 6.51897 13.8267 6.74047 15.5293 4.38179C16.5663 2.94531 16.9808 2.06808 16.8511 1.69306C16.7277 1.33558 15.965 1.42988 15.965 1.42988L13.429 1.44524C13.429 1.44524 13.2412 1.41892 13.1009 1.50555C12.9649 1.59108 12.8773 1.78846 12.8773 1.78846C12.8773 1.78846 12.4754 2.90036 11.9395 3.84558C10.8097 5.8402 10.3572 5.94547 10.1726 5.82156C9.74322 5.53317 9.85082 4.66141 9.85082 4.04296C9.85082 2.10974 10.1325 1.30378 9.30122 1.09544C9.02484 1.02635 8.8223 0.980299 8.11658 0.972623C7.21148 0.962754 6.44457 0.975913 6.01101 1.19632C5.72197 1.34326 5.49939 1.67112 5.63547 1.68977C5.8032 1.71279 6.18296 1.79613 6.38444 2.08123C6.645 2.44858 6.63551 3.27538 6.63551 3.27538C6.63551 3.27538 6.7853 5.55071 6.28634 5.83362C5.9435 6.02771 5.47407 5.63186 4.46665 3.82146C3.95081 2.89487 3.5605 1.8696 3.5605 1.8696C3.5605 1.8696 3.4856 1.6788 3.35163 1.57682C3.18917 1.45291 2.96132 1.41344 2.96132 1.41344L0.549834 1.42879C0.549834 1.42879 0.188006 1.43975 0.0550899 1.60314C-0.063058 1.74898 0.0455959 2.04943 0.0455959 2.04943C0.0455959 2.04943 1.93385 6.64068 4.07106 8.9555C6.03211 11.0773 8.25793 10.9381 8.25793 10.9381Z" fill="white"/>
</svg>
