<svg width="15" height="11" viewBox="0 0 15 11" fill="none" xmlns="http://www.w3.org/2000/svg">
<path fill-rule="evenodd" clip-rule="evenodd" d="M12.2327 1.05406C13.1045 1.1032 13.5327 1.23241 13.9273 1.93493C14.3382 2.63653 14.5455 3.845 14.5455 5.97346V5.97619V5.98074C14.5455 8.0992 14.3382 9.31677 13.9282 10.0111C13.5336 10.7136 13.1055 10.841 12.2336 10.9001C11.3618 10.9502 9.17182 10.9802 7.27455 10.9802C5.37364 10.9802 3.18273 10.9502 2.31182 10.8992C1.44182 10.8401 1.01364 10.7127 0.615455 10.0102C0.209091 9.31586 0 8.09829 0 5.97983V5.97801V5.97528V5.97255C0 3.845 0.209091 2.63653 0.615455 1.93493C1.01364 1.2315 1.44273 1.1032 2.31273 1.05315C3.18273 0.994907 5.37364 0.970337 7.27455 0.970337C9.17182 0.970337 11.3618 0.994907 12.2327 1.05406ZM9.94442 5.97528L5.45775 8.71132V3.23925L9.94442 5.97528Z" fill="white"/>
</svg>
